<svg width="40" height="41" viewBox="0 0 40 41" fill="none" xmlns="http://www.w3.org/2000/svg">
<path d="M6.66675 10.5C6.66675 10.058 6.84234 9.63406 7.1549 9.3215C7.46746 9.00894 7.89139 8.83334 8.33341 8.83334H31.6667C32.1088 8.83334 32.5327 9.00894 32.8453 9.3215C33.1578 9.63406 33.3334 10.058 33.3334 10.5C33.3334 10.942 33.1578 11.366 32.8453 11.6785C32.5327 11.9911 32.1088 12.1667 31.6667 12.1667H8.33341C7.89139 12.1667 7.46746 11.9911 7.1549 11.6785C6.84234 11.366 6.66675 10.942 6.66675 10.5Z" fill="white"/>
<path d="M6.66675 30.5C6.66675 30.058 6.84234 29.6341 7.1549 29.3215C7.46746 29.0089 7.89139 28.8333 8.33341 28.8333H31.6667C32.1088 28.8333 32.5327 29.0089 32.8453 29.3215C33.1578 29.6341 33.3334 30.058 33.3334 30.5C33.3334 30.942 33.1578 31.366 32.8453 31.6785C32.5327 31.9911 32.1088 32.1667 31.6667 32.1667H8.33341C7.89139 32.1667 7.46746 31.9911 7.1549 31.6785C6.84234 31.366 6.66675 30.942 6.66675 30.5Z" fill="white"/>
<path d="M18.3334 18.8333C17.8914 18.8333 17.4675 19.0089 17.1549 19.3215C16.8423 19.6341 16.6667 20.058 16.6667 20.5C16.6667 20.942 16.8423 21.366 17.1549 21.6785C17.4675 21.9911 17.8914 22.1667 18.3334 22.1667H31.6667C32.1088 22.1667 32.5327 21.9911 32.8453 21.6785C33.1578 21.366 33.3334 20.942 33.3334 20.5C33.3334 20.058 33.1578 19.6341 32.8453 19.3215C32.5327 19.0089 32.1088 18.8333 31.6667 18.8333H18.3334Z" fill="white"/>
</svg>
